<svg width="107" height="20" viewBox="0 0 107 20" fill="none" xmlns="http://www.w3.org/2000/svg">
<path d="M20 0H0V20H20V0Z" fill="#44AE6F"/>
<path d="M41.6667 0H21.6667V20H41.6667V0Z" fill="#44AE6F"/>
<path d="M63.3333 0H43.3333V20H63.3333V0Z" fill="#44AE6F"/>
<path d="M85 0H65V20H85V0Z" fill="#44AE6F"/>
<path d="M106.667 0H86.6667V20H106.667V0Z" fill="#44AE6F"/>
<path d="M9.99976 13.4789L13.0414 12.7081L14.3123 16.6248L9.99976 13.4789ZM16.9998 8.41642H11.6456L9.99976 3.37476L8.35392 8.41642H2.99976L7.33309 11.5414L5.68726 16.5831L10.0206 13.4581L12.6873 11.5414L16.9998 8.41642Z" fill="white"/>
<path d="M31.6664 13.4789L34.708 12.7081L35.9789 16.6248L31.6664 13.4789ZM38.6664 8.41642H33.3122L31.6664 3.37476L30.0205 8.41642H24.6664L28.9997 11.5414L27.3539 16.5831L31.6872 13.4581L34.3539 11.5414L38.6664 8.41642Z" fill="white"/>
<path d="M53.3331 13.4789L56.3747 12.7081L57.6456 16.6248L53.3331 13.4789ZM60.3331 8.41642H54.9789L53.3331 3.37476L51.6872 8.41642H46.3331L50.6664 11.5414L49.0206 16.5831L53.3539 13.4581L56.0206 11.5414L60.3331 8.41642Z" fill="white"/>
<path d="M74.9997 13.4789L78.0414 12.7081L79.3122 16.6248L74.9997 13.4789ZM81.9997 8.41642H76.6456L74.9997 3.37476L73.3539 8.41642H67.9997L72.3331 11.5414L70.6872 16.5831L75.0206 13.4581L77.6872 11.5414L81.9997 8.41642Z" fill="white"/>
<path d="M96.6664 13.4789L99.708 12.7081L100.979 16.6248L96.6664 13.4789ZM103.666 8.41642H98.3122L96.6664 3.37476L95.0206 8.41642H89.6664L93.9997 11.5414L92.3539 16.5831L96.6872 13.4581L99.3539 11.5414L103.666 8.41642Z" fill="white"/>
</svg>
